<svg xmlns="http://www.w3.org/2000/svg" viewBox="0 0 124 34"><defs><style>.cls-1{fill:#694e84;}.cls-2{fill:#191919;}.cls-3{isolation:isolate;}</style></defs><title>アセット 7</title><g id="レイヤー_2" data-name="レイヤー 2"><g id="logo"><path class="cls-1" d="M31.45,14.46A2.53,2.53,0,0,0,29,16.23H27.12A10.09,10.09,0,0,0,24.7,10.4L26.06,9a2.59,2.59,0,0,0,1.16.29A2.53,2.53,0,0,0,29,8.58,2.55,2.55,0,1,0,25,8L23.66,9.36a10.07,10.07,0,0,0-5.89-2.47V5a2.55,2.55,0,1,0-1.46,0v1.9A10.16,10.16,0,0,0,10.39,9.3L9,7.94a2.59,2.59,0,0,0,.29-1.16A2.55,2.55,0,1,0,6.78,9.32,2.49,2.49,0,0,0,8,9l1.35,1.35a10.08,10.08,0,0,0-2.48,5.89H5a2.55,2.55,0,1,0,0,1.46h1.9a10.15,10.15,0,0,0,2.48,6L8,25a2.49,2.49,0,0,0-1.23-.33,2.53,2.53,0,0,0-1.8.74A2.55,2.55,0,1,0,8.58,29a2.53,2.53,0,0,0,.74-1.8A2.59,2.59,0,0,0,9,26.06L10.4,24.7a10.1,10.1,0,0,0,5.91,2.42V29a2.53,2.53,0,1,0,1.46,0V27.12a10.08,10.08,0,0,0,5.89-2.48L25,26a2.54,2.54,0,1,0,2.21-1.31,2.59,2.59,0,0,0-1.16.29L24.7,23.61a10.16,10.16,0,0,0,2.42-5.92H29a2.54,2.54,0,1,0,2.43-3.23ZM17,25.69A8.69,8.69,0,1,1,25.69,17,8.7,8.7,0,0,1,17,25.69Z"/><path class="cls-1" d="M17,9.29a7.78,7.78,0,1,0,7.78,7.78A7.79,7.79,0,0,0,17,9.29Z"/><path class="cls-2" d="M41.25,11.64a1.34,1.34,0,0,0,.25.67,1.37,1.37,0,0,0,1.14.41,2.17,2.17,0,0,0,.79-.11.75.75,0,0,0,.58-.76.57.57,0,0,0-.28-.51,3,3,0,0,0-.9-.31l-.69-.16a4.28,4.28,0,0,1-1.42-.5,1.64,1.64,0,0,1-.65-1.43,1.9,1.9,0,0,1,.64-1.48,2.67,2.67,0,0,1,1.87-.59,2.83,2.83,0,0,1,1.76.56A2,2,0,0,1,45.1,9H43.81a.94.94,0,0,0-.52-.85,1.75,1.75,0,0,0-.8-.17,1.43,1.43,0,0,0-.85.22.66.66,0,0,0-.32.6.57.57,0,0,0,.31.53,4.17,4.17,0,0,0,.86.27l1.13.27a2.88,2.88,0,0,1,1.11.48,1.62,1.62,0,0,1,.58,1.35,1.93,1.93,0,0,1-.68,1.51,2.84,2.84,0,0,1-1.93.6,3.1,3.1,0,0,1-2-.59A2,2,0,0,1,40,11.64Z"/><path class="cls-2" d="M51.11,7.07V8.24H49.18v5.44H47.83V8.24H45.89V7.07Z"/><path class="cls-2" d="M56.88,13.09a3.28,3.28,0,0,1-4.22,0,3.63,3.63,0,0,1-1-2.73,3.53,3.53,0,0,1,1-2.72,3.24,3.24,0,0,1,4.22,0,3.53,3.53,0,0,1,1,2.72A3.63,3.63,0,0,1,56.88,13.09Zm-.84-1a2.75,2.75,0,0,0,.47-1.72A2.79,2.79,0,0,0,56,8.64,1.54,1.54,0,0,0,54.77,8a1.56,1.56,0,0,0-1.28.6A2.77,2.77,0,0,0,53,10.36a2.75,2.75,0,0,0,.47,1.72,1.54,1.54,0,0,0,1.28.61A1.52,1.52,0,0,0,56,12.08Z"/><path class="cls-2" d="M63.38,10.82a2.4,2.4,0,0,1-1.61.48H60.43v2.38H59.09V7.07h2.77a2.2,2.2,0,0,1,1.52.51A2,2,0,0,1,64,9.16,2.1,2.1,0,0,1,63.38,10.82Zm-1-2.39a1.1,1.1,0,0,0-.72-.22H60.43v1.95h1.21a1,1,0,0,0,.72-.24,1,1,0,0,0,.25-.75A1,1,0,0,0,62.36,8.43Z"/><path class="cls-2" d="M68.33,7.76A2.94,2.94,0,0,1,72.66,8a2.35,2.35,0,0,1,.45,1.23H71.76a2,2,0,0,0-.33-.72,1.31,1.31,0,0,0-1.07-.43,1.29,1.29,0,0,0-1.13.61,3,3,0,0,0-.42,1.72,2.65,2.65,0,0,0,.44,1.66,1.37,1.37,0,0,0,1.12.56,1.23,1.23,0,0,0,1-.48,2,2,0,0,0,.34-.76h1.33a3,3,0,0,1-.88,1.75,2.55,2.55,0,0,1-1.82.68A2.72,2.72,0,0,1,68.22,13a3.8,3.8,0,0,1-.78-2.52A3.73,3.73,0,0,1,68.33,7.76Z"/><path class="cls-2" d="M79.32,13.09a3.28,3.28,0,0,1-4.22,0,3.63,3.63,0,0,1-1-2.73,3.53,3.53,0,0,1,1-2.72,3.24,3.24,0,0,1,4.22,0,3.53,3.53,0,0,1,1,2.72A3.63,3.63,0,0,1,79.32,13.09Zm-.84-1A2.75,2.75,0,0,0,79,10.36a2.79,2.79,0,0,0-.47-1.72A1.53,1.53,0,0,0,77.21,8a1.56,1.56,0,0,0-1.28.6,2.77,2.77,0,0,0-.47,1.72,2.75,2.75,0,0,0,.47,1.72,1.54,1.54,0,0,0,1.28.61A1.51,1.51,0,0,0,78.48,12.08Z"/><path class="cls-2" d="M85.27,7.07h1.4l-2.2,6.61H83.2L81,7.07h1.44l1.4,5Z"/><path class="cls-2" d="M89.3,13.68H88V7.07H89.3Z"/><path class="cls-2" d="M94.79,7.21a2.08,2.08,0,0,1,1.1.84,2.83,2.83,0,0,1,.46,1.07,5.27,5.27,0,0,1,.12,1.09A4.51,4.51,0,0,1,96,12.44a2.32,2.32,0,0,1-2.16,1.24H91V7.07H93.8A3.06,3.06,0,0,1,94.79,7.21Zm-2.46,1v4.32h1.24a1.34,1.34,0,0,0,1.33-1,3.39,3.39,0,0,0,.21-1.26,3.27,3.27,0,0,0-.31-1.55,1.3,1.3,0,0,0-1.23-.54Z"/><path class="cls-2" d="M97.54,9.87H100v1.21H97.54Z"/><path class="cls-2" d="M101.12,9.19V8.32a5,5,0,0,0,.82-.08,1.15,1.15,0,0,0,.61-.34,1.17,1.17,0,0,0,.25-.47,1,1,0,0,0,0-.26h1v6.51h-1.28V9.19Z"/><path class="cls-2" d="M106.15,7.77a2.14,2.14,0,0,1,3.51.66,5.12,5.12,0,0,1,.31,2,5.81,5.81,0,0,1-.29,2,2.15,2.15,0,0,1-3.34,1.07,1.73,1.73,0,0,1-.65-1.26h1.24a.79.79,0,0,0,.24.47.71.71,0,0,0,.51.18.89.89,0,0,0,.86-.7,4.14,4.14,0,0,0,.17-1.13,1.27,1.27,0,0,1-.36.34,1.64,1.64,0,0,1-.86.21,2,2,0,0,1-1.34-.53,2,2,0,0,1-.59-1.55A2.42,2.42,0,0,1,106.15,7.77Zm2.1,2.58a1.08,1.08,0,0,0,.42-1,1.38,1.38,0,0,0-.25-.87.85.85,0,0,0-.69-.32.89.89,0,0,0-.55.18,1.21,1.21,0,0,0-.35,1,1.33,1.33,0,0,0,.23.87.81.81,0,0,0,.7.29A.91.91,0,0,0,108.25,10.35Z"/><g class="cls-3"><path class="cls-1" d="M46.73,17.19h2.44l-3.45,6.52v3.91H43.57V23.71L40,17.19h2.54l2.14,4.54Z"/><path class="cls-1" d="M52,17.19h2.44l3.64,10.43H55.79l-.68-2.15h-3.8l-.7,2.15H48.36Zm-.14,6.49h2.64l-1.31-4.11Z"/><path class="cls-1" d="M66.28,17.19h3.1V27.62h-2v-7c0-.21,0-.49,0-.86v-.84l-1.95,8.75H63.34L61.4,18.87v.84c0,.37,0,.65,0,.86v7.05h-2V17.19h3.14l1.87,8.2Z"/><path class="cls-1" d="M74.32,17.19h2.44l3.65,10.43H78.07l-.68-2.15h-3.8l-.7,2.15H70.64Zm-.14,6.49h2.64l-1.3-4.11Z"/><path class="cls-1" d="M81.69,17.19h2.25L88,24.46V17.19h2V27.62H87.89l-4.2-7.4v7.4h-2Z"/><path class="cls-1" d="M95,17.19h2.43l3.65,10.43H98.77l-.68-2.15h-3.8l-.7,2.15H91.34Zm-.15,6.49h2.65l-1.31-4.11Z"/><path class="cls-1" d="M103.68,24.4a2.22,2.22,0,0,0,.39,1.07,2.28,2.28,0,0,0,1.84.64,4.06,4.06,0,0,0,1.27-.17,1.21,1.21,0,0,0,.92-1.21.9.9,0,0,0-.45-.8,5.35,5.35,0,0,0-1.44-.49l-1.11-.24a6.92,6.92,0,0,1-2.26-.8,2.55,2.55,0,0,1-1-2.26,3,3,0,0,1,1-2.33,4.36,4.36,0,0,1,3-.92,4.54,4.54,0,0,1,2.81.87,3.12,3.12,0,0,1,1.23,2.54h-2.07a1.49,1.49,0,0,0-.84-1.34,2.86,2.86,0,0,0-1.28-.26,2.38,2.38,0,0,0-1.36.34,1.07,1.07,0,0,0-.51.95.88.88,0,0,0,.5.83,6,6,0,0,0,1.37.43l1.81.43a4.5,4.5,0,0,1,1.78.76,2.55,2.55,0,0,1,.92,2.13,3,3,0,0,1-1.09,2.37,4.57,4.57,0,0,1-3.09.95,5,5,0,0,1-3.2-.93,3.09,3.09,0,0,1-1.16-2.56Z"/><path class="cls-1" d="M111.67,27.62V17.19h2.14v4h4v-4H120V27.62h-2.14V23h-4v4.66Z"/><path class="cls-1" d="M124,27.62h-2.14V17.19H124Z"/></g></g></g></svg>